<mxfile host="app.diagrams.net" agent="Mozilla/5.0 (Windows NT 10.0; Win64; x64; rv:128.0) Gecko/20100101 Firefox/128.0" version="24.7.4">
  <diagram id="C5RBs43oDa-KdzZeNtuy" name="Page-1">
    <mxGraphModel dx="1500" dy="2065" grid="1" gridSize="10" guides="1" tooltips="1" connect="1" arrows="1" fold="1" page="1" pageScale="1" pageWidth="827" pageHeight="1169" math="0" shadow="0">
      <root>
        <mxCell id="WIyWlLk6GJQsqaUBKTNV-0" />
        <mxCell id="WIyWlLk6GJQsqaUBKTNV-1" parent="WIyWlLk6GJQsqaUBKTNV-0" />
        <mxCell id="GYrTgnVPAxJ4ua4QoY2m-9" value="" style="edgeStyle=none;curved=1;rounded=0;orthogonalLoop=1;jettySize=auto;html=1;fontSize=12;startSize=8;endSize=8;entryX=0.5;entryY=0;entryDx=0;entryDy=0;" edge="1" parent="WIyWlLk6GJQsqaUBKTNV-1" source="GYrTgnVPAxJ4ua4QoY2m-3" target="GYrTgnVPAxJ4ua4QoY2m-32">
          <mxGeometry relative="1" as="geometry" />
        </mxCell>
        <mxCell id="GYrTgnVPAxJ4ua4QoY2m-3" value="show_cart" style="strokeWidth=2;html=1;shape=mxgraph.flowchart.terminator;whiteSpace=wrap;" vertex="1" parent="WIyWlLk6GJQsqaUBKTNV-1">
          <mxGeometry x="345" y="-10" width="100" height="60" as="geometry" />
        </mxCell>
        <mxCell id="GYrTgnVPAxJ4ua4QoY2m-4" value="end" style="strokeWidth=2;html=1;shape=mxgraph.flowchart.terminator;whiteSpace=wrap;" vertex="1" parent="WIyWlLk6GJQsqaUBKTNV-1">
          <mxGeometry x="705" y="185" width="100" height="50" as="geometry" />
        </mxCell>
        <mxCell id="GYrTgnVPAxJ4ua4QoY2m-13" value="Yes" style="edgeStyle=none;curved=1;rounded=0;orthogonalLoop=1;jettySize=auto;html=1;fontSize=12;startSize=8;endSize=8;" edge="1" parent="WIyWlLk6GJQsqaUBKTNV-1" source="GYrTgnVPAxJ4ua4QoY2m-8" target="GYrTgnVPAxJ4ua4QoY2m-12">
          <mxGeometry relative="1" as="geometry" />
        </mxCell>
        <mxCell id="GYrTgnVPAxJ4ua4QoY2m-31" value="No" style="edgeStyle=none;curved=1;rounded=0;orthogonalLoop=1;jettySize=auto;html=1;fontSize=12;startSize=8;endSize=8;" edge="1" parent="WIyWlLk6GJQsqaUBKTNV-1" source="GYrTgnVPAxJ4ua4QoY2m-8" target="GYrTgnVPAxJ4ua4QoY2m-4">
          <mxGeometry relative="1" as="geometry" />
        </mxCell>
        <mxCell id="GYrTgnVPAxJ4ua4QoY2m-8" value="category in cart" style="rhombus;whiteSpace=wrap;html=1;strokeWidth=2;" vertex="1" parent="WIyWlLk6GJQsqaUBKTNV-1">
          <mxGeometry x="330" y="170" width="130" height="80" as="geometry" />
        </mxCell>
        <mxCell id="GYrTgnVPAxJ4ua4QoY2m-16" value="Yes" style="edgeStyle=none;curved=1;rounded=0;orthogonalLoop=1;jettySize=auto;html=1;fontSize=12;startSize=8;endSize=8;" edge="1" parent="WIyWlLk6GJQsqaUBKTNV-1" source="GYrTgnVPAxJ4ua4QoY2m-12" target="GYrTgnVPAxJ4ua4QoY2m-15">
          <mxGeometry relative="1" as="geometry" />
        </mxCell>
        <mxCell id="GYrTgnVPAxJ4ua4QoY2m-29" value="No" style="edgeStyle=none;curved=1;rounded=0;orthogonalLoop=1;jettySize=auto;html=1;fontSize=12;startSize=8;endSize=8;" edge="1" parent="WIyWlLk6GJQsqaUBKTNV-1" source="GYrTgnVPAxJ4ua4QoY2m-12" target="GYrTgnVPAxJ4ua4QoY2m-28">
          <mxGeometry relative="1" as="geometry" />
        </mxCell>
        <mxCell id="GYrTgnVPAxJ4ua4QoY2m-12" value="item in category" style="rhombus;whiteSpace=wrap;html=1;strokeWidth=2;" vertex="1" parent="WIyWlLk6GJQsqaUBKTNV-1">
          <mxGeometry x="330" y="290" width="130" height="80" as="geometry" />
        </mxCell>
        <mxCell id="GYrTgnVPAxJ4ua4QoY2m-19" value="Yes" style="edgeStyle=none;curved=1;rounded=0;orthogonalLoop=1;jettySize=auto;html=1;fontSize=12;startSize=8;endSize=8;" edge="1" parent="WIyWlLk6GJQsqaUBKTNV-1" source="GYrTgnVPAxJ4ua4QoY2m-15" target="GYrTgnVPAxJ4ua4QoY2m-18">
          <mxGeometry relative="1" as="geometry" />
        </mxCell>
        <mxCell id="GYrTgnVPAxJ4ua4QoY2m-25" value="&lt;div&gt;No&lt;/div&gt;" style="edgeStyle=none;curved=1;rounded=0;orthogonalLoop=1;jettySize=auto;html=1;fontSize=12;startSize=8;endSize=8;" edge="1" parent="WIyWlLk6GJQsqaUBKTNV-1" source="GYrTgnVPAxJ4ua4QoY2m-15" target="GYrTgnVPAxJ4ua4QoY2m-24">
          <mxGeometry relative="1" as="geometry" />
        </mxCell>
        <mxCell id="GYrTgnVPAxJ4ua4QoY2m-15" value="&lt;div&gt;Is calue of item &lt;br&gt;&lt;/div&gt;&lt;div&gt;more than or&lt;/div&gt;&lt;div&gt;equal to 1&lt;br&gt;&lt;/div&gt;" style="rhombus;whiteSpace=wrap;html=1;strokeWidth=2;" vertex="1" parent="WIyWlLk6GJQsqaUBKTNV-1">
          <mxGeometry x="330" y="420" width="130" height="80" as="geometry" />
        </mxCell>
        <mxCell id="GYrTgnVPAxJ4ua4QoY2m-21" value="" style="edgeStyle=none;curved=1;rounded=0;orthogonalLoop=1;jettySize=auto;html=1;fontSize=12;startSize=8;endSize=8;" edge="1" parent="WIyWlLk6GJQsqaUBKTNV-1" source="GYrTgnVPAxJ4ua4QoY2m-18" target="GYrTgnVPAxJ4ua4QoY2m-20">
          <mxGeometry relative="1" as="geometry" />
        </mxCell>
        <mxCell id="GYrTgnVPAxJ4ua4QoY2m-18" value="item_cost = number of items times cost of item" style="whiteSpace=wrap;html=1;strokeWidth=2;" vertex="1" parent="WIyWlLk6GJQsqaUBKTNV-1">
          <mxGeometry x="335" y="530" width="120" height="60" as="geometry" />
        </mxCell>
        <mxCell id="GYrTgnVPAxJ4ua4QoY2m-22" style="edgeStyle=orthogonalEdgeStyle;rounded=0;orthogonalLoop=1;jettySize=auto;html=1;fontSize=12;startSize=8;endSize=8;entryX=0.5;entryY=1;entryDx=0;entryDy=0;" edge="1" parent="WIyWlLk6GJQsqaUBKTNV-1" source="GYrTgnVPAxJ4ua4QoY2m-20" target="GYrTgnVPAxJ4ua4QoY2m-24">
          <mxGeometry relative="1" as="geometry">
            <mxPoint x="840" y="520" as="targetPoint" />
          </mxGeometry>
        </mxCell>
        <mxCell id="GYrTgnVPAxJ4ua4QoY2m-20" value="&lt;div&gt;make_cart_label with number of items, cost of the item, name of items, and serial number of tem&lt;br&gt;&lt;/div&gt;" style="shape=process;whiteSpace=wrap;html=1;backgroundOutline=1;strokeWidth=2;" vertex="1" parent="WIyWlLk6GJQsqaUBKTNV-1">
          <mxGeometry x="280" y="630" width="230" height="60" as="geometry" />
        </mxCell>
        <mxCell id="GYrTgnVPAxJ4ua4QoY2m-26" style="edgeStyle=orthogonalEdgeStyle;rounded=0;orthogonalLoop=1;jettySize=auto;html=1;fontSize=12;startSize=8;endSize=8;" edge="1" parent="WIyWlLk6GJQsqaUBKTNV-1" source="GYrTgnVPAxJ4ua4QoY2m-24">
          <mxGeometry relative="1" as="geometry">
            <mxPoint x="400" y="280" as="targetPoint" />
            <Array as="points">
              <mxPoint x="645" y="270" />
            </Array>
          </mxGeometry>
        </mxCell>
        <mxCell id="GYrTgnVPAxJ4ua4QoY2m-24" value="increment item by 1" style="whiteSpace=wrap;html=1;strokeWidth=2;" vertex="1" parent="WIyWlLk6GJQsqaUBKTNV-1">
          <mxGeometry x="585" y="430" width="120" height="60" as="geometry" />
        </mxCell>
        <mxCell id="GYrTgnVPAxJ4ua4QoY2m-30" style="edgeStyle=orthogonalEdgeStyle;rounded=0;orthogonalLoop=1;jettySize=auto;html=1;entryX=0;entryY=0.5;entryDx=0;entryDy=0;fontSize=12;startSize=8;endSize=8;" edge="1" parent="WIyWlLk6GJQsqaUBKTNV-1" source="GYrTgnVPAxJ4ua4QoY2m-28" target="GYrTgnVPAxJ4ua4QoY2m-8">
          <mxGeometry relative="1" as="geometry">
            <Array as="points">
              <mxPoint x="190" y="210" />
            </Array>
          </mxGeometry>
        </mxCell>
        <mxCell id="GYrTgnVPAxJ4ua4QoY2m-28" value="&lt;div&gt;increment category &lt;br&gt;&lt;/div&gt;&lt;div&gt;by 1&lt;br&gt;&lt;/div&gt;" style="whiteSpace=wrap;html=1;strokeWidth=2;" vertex="1" parent="WIyWlLk6GJQsqaUBKTNV-1">
          <mxGeometry x="130" y="310" width="120" height="60" as="geometry" />
        </mxCell>
        <mxCell id="GYrTgnVPAxJ4ua4QoY2m-35" style="edgeStyle=none;curved=1;rounded=0;orthogonalLoop=1;jettySize=auto;html=1;exitX=0.5;exitY=1;exitDx=0;exitDy=0;entryX=0.5;entryY=0;entryDx=0;entryDy=0;fontSize=12;startSize=8;endSize=8;" edge="1" parent="WIyWlLk6GJQsqaUBKTNV-1" source="GYrTgnVPAxJ4ua4QoY2m-32" target="GYrTgnVPAxJ4ua4QoY2m-8">
          <mxGeometry relative="1" as="geometry" />
        </mxCell>
        <mxCell id="GYrTgnVPAxJ4ua4QoY2m-32" value="&lt;div&gt;category = 0&lt;/div&gt;&lt;div&gt;item = 0&lt;br&gt;&lt;/div&gt;" style="whiteSpace=wrap;html=1;strokeWidth=2;" vertex="1" parent="WIyWlLk6GJQsqaUBKTNV-1">
          <mxGeometry x="335" y="80" width="120" height="60" as="geometry" />
        </mxCell>
      </root>
    </mxGraphModel>
  </diagram>
</mxfile>
